<svg aria-hidden="true" style="width:0;height:0;position:absolute;overflow:hidden" xmlns="http://www.w3.org/2000/svg"><defs><symbol id="icon-bulb" viewBox="0 0 32 32"><path d="M18.578 20.471a6.208 6.208 0 0 0 3.325-2.153l.01-.013a6.164 6.164 0 0 0 1.355-3.869c0-.272-.017-.539-.051-.802l.003.031a6.208 6.208 0 0 0-2.373-4.179l-.014-.011c-1.293-.997-2.905-1.44-4.54-1.248s-3.1.998-4.127 2.267a6.141 6.141 0 0 0-1.388 3.791v.006c-.045 2.266-.826 4.466-2.198 6.195l-1.501 1.891a1.943 1.943 0 0 0 .31 2.726l.004.003 1.415 1.123c.328.262.749.42 1.208.42a1.94 1.94 0 0 0 1.519-.73l.003-.004 1.501-1.891c1.387-1.748 3.299-2.98 5.539-3.555zm-6.999-6.162a5.37 5.37 0 0 1 1.218-3.319l-.008.01c1.844-2.28 5.233-2.678 7.555-.888a5.406 5.406 0 0 1 2.078 3.626l.003.026a5.376 5.376 0 0 1-1.148 4.056l.008-.011a5.402 5.402 0 0 1-2.87 1.879l-.038.008c-2.361.606-4.39 1.887-5.879 3.711l-3.2-2.54c1.423-1.846 2.231-4.169 2.279-6.557zm-3.705 8.355.202-.254 2.913 2.911-.079.099a1.079 1.079 0 0 1-.136.142l-2.9-2.898zm.702-.885.226-.285 3.204 2.543-.517.652-2.913-2.911zm-.686 2.702a1.14 1.14 0 0 1-.414-1.091l-.001.007 2.454 2.452a1.137 1.137 0 0 1-.626-.245l.002.002-1.415-1.124z"/><path d="M13.547 12.434c.106-.183.228-.361.363-.528a.4.4 0 1 0-.622-.504l-.001.001c-.161.2-.308.412-.435.632a.4.4 0 0 0 .693.401l.001-.002zm-1.935 6.227a.4.4 0 0 0 .624-.172l.001-.003a12.44 12.44 0 0 0 .783-4.135v-.013c.005-.235.03-.469.075-.696a.4.4 0 0 0-.784-.156v.003a4.826 4.826 0 0 0-.089.834 11.868 11.868 0 0 1-.761 3.969l.027-.082a.402.402 0 0 0 .125.451l.001.001zm7.852-.549a.4.4 0 0 0-.545-.162l.002-.001a3.905 3.905 0 0 1-.873.345l-.028.006a.4.4 0 1 0 .202.774l-.003.001a4.823 4.823 0 0 0 1.081-.421.402.402 0 0 0 .162-.544l.001.002zm.046-6.824a4.007 4.007 0 0 1 .398 5.909l.002-.002a.4.4 0 1 0 .578.553 4.809 4.809 0 0 0-.481-7.088.4.4 0 1 0-.498.626l.001.001zm1.824-2.296a.398.398 0 0 0 .562-.063l.001-.001 1.394-1.756a.4.4 0 1 0-.626-.498l-.001.001-1.394 1.756a.398.398 0 0 0 .064.562l.001.001zM17.67 7.093a.4.4 0 0 0 .792.12v-.002l.33-2.216a.401.401 0 0 0-.793-.121v.002l-.329 2.216zm3.226 16.211-.823-2.084a.4.4 0 1 0-.743.297l-.001-.003.823 2.084a.4.4 0 1 0 .743-.297l.001.003zM13.061 5.653l.823 2.084a.4.4 0 0 0 .522.224l-.003.001a.401.401 0 0 0 .224-.522l.001.003-.823-2.084a.4.4 0 1 0-.743.297l-.001-.003zm11.722 14.509-1.756-1.394a.4.4 0 1 0-.498.626l.001.001 1.756 1.394a.4.4 0 1 0 .498-.626l-.001-.001zM11.491 10.123a.4.4 0 0 0-.063-.562l-.001-.001-1.756-1.394a.4.4 0 1 0-.498.626l.001.001 1.756 1.394a.398.398 0 0 0 .562-.064l.001-.001zm12.564 5.757a.394.394 0 0 0 .19.082l2.216.329a.401.401 0 0 0 .121-.793h-.002l-2.216-.329a.4.4 0 0 0-.309.709l.001.001zM9.711 12.995l-2.217-.33a.401.401 0 0 0-.121.793h.002l2.217.329a.4.4 0 0 0 .12-.792H9.71zm13.783-1.091a.401.401 0 0 0 .522.224l-.003.001 2.084-.823a.4.4 0 1 0-.297-.743l.003-.001-2.084.824a.401.401 0 0 0-.224.522l-.001-.003z"/></symbol><symbol id="icon-close" viewBox="0 0 32 32"><path d="M19.491 16 30.139 5.377a2.487 2.487 0 0 0-3.516-3.516L16 12.509 5.377 1.861a2.487 2.487 0 0 0-3.516 3.516L12.509 16 1.861 26.623a2.478 2.478 0 0 0 0 3.516 2.478 2.478 0 0 0 3.516 0L16 19.491l10.623 10.648a2.478 2.478 0 0 0 3.516 0 2.478 2.478 0 0 0 0-3.516L19.491 16z"/></symbol></defs></svg>