<svg aria-hidden="true" style="position: absolute; width: 0; height: 0; overflow: hidden;" version="1.1" xmlns="http://www.w3.org/2000/svg" xmlns:xlink="http://www.w3.org/1999/xlink">
<defs>
<symbol id="icon-bulb" viewBox="0 0 32 32">
<path d="M18.578 20.471c1.359-0.353 2.504-1.118 3.325-2.153l0.010-0.013c0.844-1.050 1.355-2.4 1.355-3.869 0-0.272-0.017-0.539-0.051-0.802l0.003 0.031c-0.21-1.715-1.093-3.192-2.373-4.179l-0.014-0.011c-1.293-0.997-2.905-1.44-4.54-1.248s-3.1 0.998-4.127 2.267c-0.843 1.028-1.362 2.349-1.388 3.791l-0 0.006c-0.045 2.266-0.826 4.466-2.198 6.195l-1.501 1.891c-0.262 0.328-0.42 0.749-0.42 1.207 0 0.614 0.285 1.162 0.73 1.519l0.004 0.003 1.415 1.123c0.328 0.262 0.749 0.42 1.208 0.42 0.615 0 1.163-0.285 1.519-0.73l0.003-0.004 1.501-1.891c1.387-1.748 3.299-2.98 5.539-3.555zM11.579 14.309c0.023-1.262 0.476-2.414 1.218-3.319l-0.008 0.010c1.844-2.28 5.233-2.678 7.555-0.888 1.128 0.87 1.898 2.157 2.078 3.626l0.003 0.026c0.027 0.202 0.042 0.435 0.042 0.673 0 1.281-0.445 2.457-1.19 3.383l0.008-0.011c-0.724 0.913-1.723 1.58-2.87 1.879l-0.038 0.008c-2.361 0.606-4.39 1.887-5.879 3.711l-3.2-2.54c1.423-1.846 2.231-4.169 2.279-6.557zM7.874 22.664l0.202-0.254 2.913 2.911-0.079 0.099c-0.042 0.053-0.087 0.099-0.136 0.142l-2.9-2.898zM8.576 21.779l0.226-0.285 3.204 2.543-0.517 0.652-2.913-2.911zM7.89 24.481c-0.264-0.211-0.431-0.533-0.431-0.894 0-0.067 0.006-0.133 0.017-0.197l-0.001 0.007 2.454 2.452c-0.238-0.018-0.453-0.107-0.626-0.245l0.002 0.002-1.415-1.124z"></path>
<path d="M13.547 12.434c0.106-0.183 0.228-0.361 0.363-0.528 0.057-0.069 0.091-0.158 0.091-0.255 0-0.221-0.179-0.4-0.4-0.4-0.127 0-0.24 0.059-0.313 0.151l-0.001 0.001c-0.161 0.2-0.308 0.412-0.435 0.632-0.034 0.057-0.053 0.126-0.053 0.2 0 0.221 0.179 0.4 0.4 0.4 0.148 0 0.277-0.080 0.346-0.199l0.001-0.002zM11.612 18.661c0.068 0.054 0.155 0.087 0.249 0.087 0.171 0 0.318-0.108 0.375-0.259l0.001-0.003c0.468-1.23 0.753-2.651 0.783-4.135l0-0.013c0.005-0.235 0.030-0.469 0.075-0.696 0.005-0.023 0.008-0.050 0.008-0.077 0-0.221-0.179-0.4-0.4-0.4-0.194 0-0.355 0.138-0.392 0.321l-0 0.003c-0.053 0.272-0.084 0.553-0.089 0.834-0.028 1.403-0.295 2.735-0.761 3.969l0.027-0.082c-0.016 0.041-0.025 0.089-0.025 0.138 0 0.127 0.059 0.239 0.15 0.313l0.001 0.001zM19.464 18.112c-0.069-0.127-0.201-0.211-0.353-0.211-0.069 0-0.135 0.018-0.192 0.049l0.002-0.001c-0.259 0.142-0.558 0.262-0.873 0.345l-0.028 0.006c-0.178 0.043-0.308 0.201-0.308 0.389 0 0.221 0.179 0.4 0.4 0.4 0.038 0 0.075-0.005 0.11-0.015l-0.003 0.001c0.378-0.097 0.742-0.239 1.081-0.421 0.126-0.069 0.211-0.201 0.211-0.352 0-0.069-0.018-0.135-0.049-0.192l0.001 0.002zM19.51 11.288c1.729 1.372 2.018 3.895 0.646 5.624-0.083 0.104-0.164 0.197-0.248 0.285l0.002-0.002c-0.069 0.072-0.111 0.169-0.111 0.277 0 0.221 0.179 0.4 0.4 0.4 0.114 0 0.216-0.047 0.289-0.124l0-0c0.103-0.107 0.202-0.222 0.295-0.339 1.647-2.074 1.299-5.102-0.776-6.749-0.068-0.054-0.154-0.087-0.249-0.087-0.221 0-0.4 0.179-0.4 0.4 0 0.127 0.059 0.24 0.151 0.313l0.001 0.001zM21.334 8.992c0.068 0.054 0.154 0.087 0.249 0.087 0.127 0 0.239-0.059 0.313-0.15l0.001-0.001 1.394-1.756c0.054-0.068 0.087-0.154 0.087-0.249 0-0.221-0.179-0.4-0.4-0.4-0.127 0-0.24 0.059-0.313 0.151l-0.001 0.001-1.394 1.756c-0.054 0.068-0.087 0.154-0.087 0.249 0 0.127 0.059 0.24 0.151 0.313l0.001 0.001zM17.67 7.093c-0.003 0.018-0.004 0.038-0.004 0.059 0 0.221 0.179 0.4 0.4 0.4 0.2 0 0.366-0.147 0.396-0.339l0-0.002 0.33-2.216c0.003-0.018 0.004-0.038 0.004-0.059 0-0.221-0.179-0.401-0.401-0.401-0.2 0-0.366 0.147-0.396 0.339l-0 0.002-0.329 2.216zM20.896 23.304l-0.823-2.084c-0.060-0.15-0.204-0.253-0.372-0.253-0.221 0-0.4 0.179-0.4 0.4 0 0.053 0.010 0.104 0.029 0.15l-0.001-0.003 0.823 2.084c0.060 0.15 0.204 0.253 0.372 0.253 0.221 0 0.4-0.179 0.4-0.4 0-0.053-0.010-0.104-0.029-0.15l0.001 0.003zM13.061 5.653l0.823 2.084c0.060 0.15 0.203 0.254 0.371 0.254 0.053 0 0.105-0.011 0.151-0.030l-0.003 0.001c0.149-0.060 0.253-0.204 0.253-0.372 0-0.053-0.010-0.103-0.029-0.15l0.001 0.003-0.823-2.084c-0.060-0.15-0.204-0.253-0.372-0.253-0.221 0-0.4 0.179-0.4 0.4 0 0.053 0.010 0.104 0.029 0.15l-0.001-0.003zM24.783 20.162l-1.756-1.394c-0.068-0.054-0.154-0.087-0.249-0.087-0.221 0-0.4 0.179-0.4 0.4 0 0.127 0.059 0.24 0.151 0.313l0.001 0.001 1.756 1.394c0.068 0.054 0.154 0.087 0.249 0.087 0.221 0 0.4-0.179 0.4-0.4 0-0.127-0.059-0.24-0.151-0.313l-0.001-0.001zM11.491 10.123c0.054-0.068 0.087-0.155 0.087-0.249 0-0.126-0.059-0.239-0.15-0.313l-0.001-0.001-1.756-1.394c-0.068-0.054-0.154-0.087-0.249-0.087-0.221 0-0.4 0.179-0.4 0.4 0 0.127 0.059 0.24 0.151 0.313l0.001 0.001 1.756 1.394c0.068 0.054 0.154 0.087 0.249 0.087 0.127 0 0.24-0.059 0.313-0.151l0.001-0.001zM24.055 15.88c0.053 0.042 0.118 0.072 0.19 0.082l2.216 0.329c0.018 0.003 0.038 0.004 0.059 0.004 0.221 0 0.401-0.179 0.401-0.401 0-0.2-0.147-0.366-0.339-0.396l-0.002-0-2.216-0.329c-0.018-0.003-0.039-0.005-0.061-0.005-0.221 0-0.4 0.179-0.4 0.4 0 0.127 0.059 0.241 0.152 0.314l0.001 0.001zM9.711 12.995l-2.217-0.33c-0.018-0.003-0.038-0.004-0.059-0.004-0.221 0-0.401 0.179-0.401 0.401 0 0.2 0.147 0.366 0.339 0.396l0.002 0 2.217 0.329c0.018 0.003 0.038 0.004 0.059 0.004 0.221 0 0.4-0.179 0.4-0.4 0-0.2-0.147-0.366-0.339-0.396l-0.002-0zM23.494 11.904c0.060 0.149 0.204 0.253 0.372 0.253 0.053 0 0.104-0.010 0.15-0.029l-0.003 0.001 2.084-0.823c0.15-0.060 0.253-0.204 0.253-0.372 0-0.221-0.179-0.4-0.4-0.4-0.053 0-0.104 0.010-0.15 0.029l0.003-0.001-2.084 0.824c-0.149 0.060-0.253 0.204-0.253 0.372 0 0.053 0.010 0.103 0.029 0.15l-0.001-0.003z"></path>
</symbol>
<symbol id="icon-close" viewBox="0 0 32 32">
<path d="M19.491 16l10.648-10.623c0.466-0.466 0.728-1.099 0.728-1.758s-0.262-1.292-0.728-1.758c-0.466-0.466-1.099-0.728-1.758-0.728s-1.292 0.262-1.758 0.728l-10.623 10.648-10.623-10.648c-0.466-0.466-1.099-0.728-1.758-0.728s-1.292 0.262-1.758 0.728c-0.466 0.466-0.728 1.099-0.728 1.758s0.262 1.292 0.728 1.758l10.648 10.623-10.648 10.623c-0.232 0.23-0.416 0.504-0.542 0.806s-0.19 0.625-0.19 0.952c0 0.327 0.065 0.651 0.19 0.952s0.31 0.576 0.542 0.806c0.23 0.232 0.504 0.416 0.806 0.542s0.625 0.19 0.952 0.19c0.327 0 0.651-0.065 0.952-0.19s0.576-0.31 0.806-0.542l10.623-10.648 10.623 10.648c0.23 0.232 0.504 0.416 0.806 0.542s0.625 0.19 0.952 0.19c0.327 0 0.651-0.065 0.952-0.19s0.576-0.31 0.806-0.542c0.232-0.23 0.416-0.504 0.542-0.806s0.19-0.625 0.19-0.952c0-0.327-0.065-0.651-0.19-0.952s-0.31-0.576-0.542-0.806l-10.648-10.623z"></path>
</symbol>
</defs>
</svg>
